{"title":"Who Framed Roger Rabbit? - Uncensored - 1080p HDTVRip","uid":8217230,"size":4495147553,"categoryP":"video","categoryS":"hd___movies","magnet":"?xt=urn:btih:6e99b3a1c9e4e05d9345133134822728de7f957e&amp;dn=Who+Framed+Roger+Rabbit%3F+-+Uncensored+-+1080p+HDTVRip&amp;tr=udp%3A%2F%2Ftracker.openbittorrent.com%3A80&amp;tr=udp%3A%2F%2Fopen.demonii.com%3A1337&amp;tr=udp%3A%2F%2Ftracker.coppersurfer.tk%3A6969&amp;tr=udp%3A%2F%2Fexodus.desync.com%3A6969","seeders":1,"leechers":0,"uploader":"drngr","files":1,"time":1362367169,"description":"************************\n*** NO ENGLISH TRACK ***\n************************\n\n\nGeneral\nUnique ID                      : 249530338402558741137644973453978062856 (0xBBB9CB8A1E18D320A46389F8258F5008)\nComplete name                  : Qui veut la peau de Roger\nFormat                         : Matroska\nFormat version                 : Version 2\nFile size                      : 4.19 GiB\nDuration                       : 1h 32mn\nOverall bit rate               : 6 463 Kbps\nEncoded date                   : UTC 2013-01-04 17:28:07\nWriting application            : mkvmerge v5.8.0 ('No Sleep / Pillow') built on Sep  2 2012 15:37:04\nWriting library                : libebml v1.2.3 + libmatroska v1.3.0\n\nVideo\nID                             : 1\nFormat                         : AVC\nFormat/Info                    : Advanced Video Codec\nFormat profile                 : &lt;a class=&quot;__cf_email__&quot; href=&quot;/cdn-cgi/l/email-protection&quot; data-cfemail=&quot;b3fbdad4dbf3ff879d83&quot;&gt;[email&amp;#160;protected]&lt;/a&gt;&lt;script cf-hash='f9e31' type=&quot;text/javascript&quot;&gt;\n/* &lt;![CDATA[ */!function(){try{var t=&quot;currentScript&quot;in document?document.currentScript:function(){for(var t=document.getElementsByTagName(&quot;script&quot;),e=t.length;e--;)if(t[e].getAttribute(&quot;cf-hash&quot;))return t[e]}();if(t&amp;&amp;t.previousSibling){var e,r,n,i,c=t.previousSibling,a=c.getAttribute(&quot;data-cfemail&quot;);if(a){for(e=&quot;&quot;,r=parseInt(a.substr(0,2),16),n=2;a.length-n;n+=2)i=parseInt(a.substr(n,2),16)^r,e+=String.fromCharCode(i);e=document.createTextNode(e),c.parentNode.replaceChild(e,c)}}}catch(u){}}();/* ]]&gt; */&lt;/script&gt;\nFormat settings, CABAC         : Yes\nFormat settings, ReFrames      : 4 frames\nFormat settings, GOP           : M=8, N=32\nCodec ID                       : V_MPEG4/ISO/AVC\nDuration                       : 1h 32mn\nBit rate                       : 6 078 Kbps\nWidth                          : 1 920 pixels\nHeight                         : 1 080 pixels\nDisplay aspect ratio           : 16:9\nFrame rate mode                : Constant\nFrame rate                     : 25.000 fps\nColor space                    : YUV\nChroma subsampling             : 4:2:0\nBit depth                      : 8 bits\nScan type                      : MBAFF\nBits/(Pixel*Frame)             : 0.117\nStream size                    : 3.94 GiB (94%)\nDefault                        : Yes\nForced                         : No\nColor primaries                : BT.709\nTransfer characteristics       : BT.709\nMatrix coefficients            : BT.709\n\nAudio\nID                             : 2\nFormat                         : E-AC-3\nFormat/Info                    : Audio Coding 3\nFormat settings, Endianness    : Big\nCodec ID                       : A_EAC3\nDuration                       : 1h 32mn\nBit rate mode                  : Constant\nBit rate                       : 256 Kbps\nChannel(s)                     : 6 channels\nChannel positions              : Front: L C R, Side: L R, LFE\nSampling rate                  : 48.0 KHz\nCompression mode               : Lossy\nDelay relative to video        : 28ms\nStream size                    : 170 MiB (4%)\nDefault                        : Yes\nForced                         : No\n\n","torrent":{"xt":"urn:btih:6e99b3a1c9e4e05d9345133134822728de7f957e","amp;dn":"Who+Framed+Roger+Rabbit%3F+-+Uncensored+-+1080p+HDTVRip","amp;tr":["udp%3A%2F%2Ftracker.openbittorrent.com%3A80","udp%3A%2F%2Fopen.demonii.com%3A1337","udp%3A%2F%2Ftracker.coppersurfer.tk%3A6969","udp%3A%2F%2Fexodus.desync.com%3A6969"],"infoHash":"6e99b3a1c9e4e05d9345133134822728de7f957e","infoHashBuffer":{"type":"Buffer","data":[110,153,179,161,201,228,224,93,147,69,19,49,52,130,39,40,222,127,149,126]},"announce":[],"urlList":[]}}